<svg width="6" height="8" viewBox="0 0 6 8" fill="none" xmlns="http://www.w3.org/2000/svg">
<g opacity="0.998">
<path opacity="0.998" d="M3.77043 0C3.52161 0.0247232 3.27446 0.0674923 3.03053 0.128041C1.68185 0.466219 1.14806e-05 1.59599 1.14806e-05 3.51284C-0.00183489 4.19571 0.219083 4.85557 0.620832 5.36717C0.695482 3.83647 1.2549 2.38657 2.19764 1.28041C2.64743 0.748242 3.18063 0.314161 3.77043 0V0Z" fill="#225474"/>
<path opacity="0.998" d="M1.03125 7.76137C1.03125 7.79222 1.03664 7.8228 1.04713 7.85131C1.05762 7.87982 1.073 7.9057 1.09239 7.92753C1.11177 7.94935 1.13477 7.96667 1.16009 7.97848C1.18542 7.99029 1.21256 7.99637 1.23997 7.99637C1.26738 7.99637 1.29453 7.99029 1.31985 7.97848C1.34517 7.96667 1.36818 7.94935 1.38756 7.92753C1.40694 7.9057 1.42232 7.87982 1.43281 7.85131C1.4433 7.8228 1.44869 7.79222 1.44869 7.76137V6.5736C1.30441 6.51095 1.16482 6.4354 1.03125 6.34766V7.76137Z" fill="#225474"/>
<path opacity="0.998" d="M5.57245 0.210482C5.55983 0.16156 5.53344 0.118579 5.49724 0.088014C5.46104 0.0574488 5.417 0.0409545 5.37175 0.0410158C4.26803 0.115039 3.23523 0.678017 2.49912 1.60688C1.56862 2.69768 1.04232 4.14671 1.02734 5.659V5.78176C1.05856 5.80737 1.09 5.83248 1.12167 5.85708C1.60177 6.21183 2.17573 6.36962 2.74702 6.30391C3.31831 6.23821 3.85208 5.95302 4.25855 5.49631C4.51895 5.13626 4.70259 4.71381 4.79537 4.2614C4.88814 3.80899 4.88759 3.33866 4.79375 2.88653C4.71681 1.9074 4.65058 1.06459 5.4828 0.471836C5.52069 0.44488 5.54986 0.404912 5.56601 0.357844C5.58215 0.310776 5.58441 0.259107 5.57245 0.210482Z" fill="#225474"/>
</g>
</svg>
