<svg width="9" height="10" viewBox="0 0 9 10" fill="none" xmlns="http://www.w3.org/2000/svg">
<path d="M2.72266 3.27344L5.53634 6.44122L4.22174 7.92126C3.84862 8.34133 3.34257 8.57733 2.8149 8.57733C2.28723 8.57733 1.78118 8.34133 1.40806 7.92126C1.03494 7.50119 0.825327 6.93144 0.825327 6.33737C0.825327 5.74329 1.03494 5.17355 1.40806 4.75348L2.72266 3.27344Z" fill="#7598B1"/>
<path d="M5.72266 6.23438L2.90897 3.06659L4.22357 1.58655C4.59669 1.16648 5.10274 0.930483 5.63041 0.930483C6.15808 0.930483 6.66414 1.16648 7.03725 1.58655C7.41037 2.00663 7.61999 2.57637 7.61999 3.17044C7.61999 3.76452 7.41037 4.33426 7.03725 4.75434L5.72266 6.23438Z" fill="#7598B1"/>
<path d="M4.80078 2.13281L3.97058 3.06749" stroke="white" stroke-width="0.75" stroke-linecap="round"/>
</svg>
