<svg width="22" height="24" viewBox="0 0 22 24" fill="none" xmlns="http://www.w3.org/2000/svg">
<path d="M6.80469 8.18164L13.8389 16.1011L10.5524 19.8012C9.61961 20.8514 8.35447 21.4414 7.0353 21.4414C5.71613 21.4414 4.45099 20.8514 3.5182 19.8012C2.5854 18.751 2.06137 17.3267 2.06136 15.8415C2.06136 14.3563 2.5854 12.9319 3.5182 11.8817L6.80469 8.18164Z" fill="#0D5181"/>
<path d="M14.3047 15.584L7.27048 7.66453L10.557 3.96443C11.4898 2.91424 12.7549 2.32426 14.0741 2.32426C15.3932 2.32426 16.6584 2.91424 17.5912 3.96443C18.524 5.01462 19.048 6.43897 19.048 7.92416C19.048 9.40935 18.524 10.8337 17.5912 11.8839L14.3047 15.584Z" fill="#0D5181"/>
<path d="M12 5.33008L9.92451 7.66677" stroke="white" stroke-width="1.875" stroke-linecap="round"/>
</svg>
